<svg width="27" height="35" viewBox="0 0 27 35" fill="none" xmlns="http://www.w3.org/2000/svg">
<path d="M24.125 30.25H22.5312L21.5006 12.1875H22C22.3461 12.1863 22.6824 12.0725 22.9581 11.8632C23.2338 11.6539 23.4339 11.3606 23.5281 11.0276C23.6223 10.6945 23.6055 10.3399 23.4803 10.0172C23.3551 9.69453 23.1283 9.42139 22.8341 9.23906L24.5659 6.63594C24.624 6.5495 24.6554 6.44789 24.6562 6.34375V1.03125C24.6562 0.890354 24.6003 0.755228 24.5007 0.6556C24.401 0.555971 24.2659 0.5 24.125 0.5H21.4688C21.3279 0.5 21.1927 0.555971 21.0931 0.6556C20.9935 0.755228 20.9375 0.890354 20.9375 1.03125V2.625H18.8125V1.03125C18.8125 0.890354 18.7565 0.755228 18.6569 0.6556C18.5573 0.555971 18.4221 0.5 18.2812 0.5H15.0938C14.9529 0.5 14.8177 0.555971 14.7181 0.6556C14.6185 0.755228 14.5625 0.890354 14.5625 1.03125V2.625H12.4375V1.03125C12.4375 0.890354 12.3815 0.755228 12.2819 0.6556C12.1823 0.555971 12.0471 0.5 11.9062 0.5H8.71875C8.57785 0.5 8.44273 0.555971 8.3431 0.6556C8.24347 0.755228 8.1875 0.890354 8.1875 1.03125V2.625H6.0625V1.03125C6.0625 0.890354 6.00653 0.755228 5.9069 0.6556C5.80727 0.555971 5.67215 0.5 5.53125 0.5H2.875C2.7341 0.5 2.59898 0.555971 2.49935 0.6556C2.39972 0.755228 2.34375 0.890354 2.34375 1.03125V6.34375C2.34299 6.44735 2.37253 6.54891 2.42875 6.63594L4.16062 9.23906C3.86604 9.42163 3.639 9.69524 3.5139 10.0184C3.38879 10.3416 3.37245 10.6968 3.46734 11.0301C3.56223 11.3635 3.76319 11.6568 4.03976 11.8656C4.31633 12.0745 4.65343 12.1875 5 12.1875H5.49938L4.49531 30.25H2.875C2.17052 30.25 1.49489 30.5299 0.996748 31.028C0.498604 31.5261 0.21875 32.2018 0.21875 32.9062V33.9688C0.21875 34.1096 0.274721 34.2448 0.37435 34.3444C0.473978 34.444 0.609104 34.5 0.75 34.5H26.25C26.3909 34.5 26.526 34.444 26.6257 34.3444C26.7253 34.2448 26.7812 34.1096 26.7812 33.9688V32.9062C26.7812 32.2018 26.5014 31.5261 26.0033 31.028C25.5051 30.5299 24.8295 30.25 24.125 30.25ZM5 1.5625V3.15625C5 3.29715 5.05597 3.43227 5.1556 3.5319C5.25523 3.63153 5.39035 3.6875 5.53125 3.6875H8.71875C8.85965 3.6875 8.99477 3.63153 9.0944 3.5319C9.19403 3.43227 9.25 3.29715 9.25 3.15625V1.5625H11.375V3.15625C11.375 3.29715 11.431 3.43227 11.5306 3.5319C11.6302 3.63153 11.7654 3.6875 11.9062 3.6875H15.0938C15.2346 3.6875 15.3698 3.63153 15.4694 3.5319C15.569 3.43227 15.625 3.29715 15.625 3.15625V1.5625H17.75V3.15625C17.75 3.29715 17.806 3.43227 17.9056 3.5319C18.0052 3.63153 18.1404 3.6875 18.2812 3.6875H21.4688C21.6096 3.6875 21.7448 3.63153 21.8444 3.5319C21.944 3.43227 22 3.29715 22 3.15625V1.5625H23.5938V5.8125H3.40625V1.5625H5ZM23.1316 6.875L21.7131 9H5.28688L3.86844 6.875H23.1316ZM4.46875 10.5938C4.46875 10.4529 4.52472 10.3177 4.62435 10.2181C4.72398 10.1185 4.8591 10.0625 5 10.0625H22C22.1409 10.0625 22.276 10.1185 22.3757 10.2181C22.4753 10.3177 22.5312 10.4529 22.5312 10.5938C22.5312 10.7346 22.4753 10.8698 22.3757 10.9694C22.276 11.069 22.1409 11.125 22 11.125H5C4.8591 11.125 4.72398 11.069 4.62435 10.9694C4.52472 10.8698 4.46875 10.7346 4.46875 10.5938ZM6.32812 16.4375H10.3125C10.4534 16.4375 10.5885 16.3815 10.6882 16.2819C10.7878 16.1823 10.8438 16.0471 10.8438 15.9062C10.8438 15.7654 10.7878 15.6302 10.6882 15.5306C10.5885 15.431 10.4534 15.375 10.3125 15.375H6.38656L6.59375 12.1875H20.4594L20.9322 20.6875H16.6875C16.5466 20.6875 16.4115 20.7435 16.3118 20.8431C16.2122 20.9427 16.1562 21.0779 16.1562 21.2188C16.1562 21.3596 16.2122 21.4948 16.3118 21.5944C16.4115 21.694 16.5466 21.75 16.6875 21.75H20.9375L21.2669 27.5938H18.2812C18.1404 27.5938 18.0052 27.6497 17.9056 27.7493C17.806 27.849 17.75 27.9841 17.75 28.125C17.75 28.2659 17.806 28.401 17.9056 28.5007C18.0052 28.6003 18.1404 28.6562 18.2812 28.6562H21.3519L21.4369 30.25H16.6875V28.125C16.6875 27.2796 16.3517 26.4689 15.7539 25.8711C15.1561 25.2733 14.3454 24.9375 13.5 24.9375C12.6546 24.9375 11.8439 25.2733 11.2461 25.8711C10.6483 26.4689 10.3125 27.2796 10.3125 28.125V30.25H5.56312L6.32812 16.4375ZM15.625 30.25H11.375V28.125C11.375 27.5614 11.5989 27.0209 11.9974 26.6224C12.3959 26.2239 12.9364 26 13.5 26C14.0636 26 14.6041 26.2239 15.0026 26.6224C15.4011 27.0209 15.625 27.5614 15.625 28.125V30.25ZM25.7188 33.4375H1.28125V32.9062C1.28125 32.4836 1.44916 32.0782 1.74805 31.7793C2.04693 31.4804 2.45231 31.3125 2.875 31.3125H24.125C24.5477 31.3125 24.9531 31.4804 25.252 31.7793C25.5508 32.0782 25.7188 32.4836 25.7188 32.9062V33.4375Z" fill="#616161"/>
<path d="M7.65625 22.8125H10.8438C10.9846 22.8125 11.1198 22.7565 11.2194 22.6569C11.319 22.5573 11.375 22.4221 11.375 22.2812V20.6875C11.375 20.1239 11.1511 19.5834 10.7526 19.1849C10.3541 18.7864 9.81359 18.5625 9.25 18.5625C8.68641 18.5625 8.14591 18.7864 7.7474 19.1849C7.34888 19.5834 7.125 20.1239 7.125 20.6875V22.2812C7.125 22.4221 7.18097 22.5573 7.2806 22.6569C7.38023 22.7565 7.51535 22.8125 7.65625 22.8125ZM8.1875 20.6875C8.1875 20.4057 8.29944 20.1355 8.4987 19.9362C8.69796 19.7369 8.96821 19.625 9.25 19.625C9.53179 19.625 9.80204 19.7369 10.0013 19.9362C10.2006 20.1355 10.3125 20.4057 10.3125 20.6875V21.75H8.1875V20.6875Z" fill="#616161"/>
<path d="M16.1562 17.5H19.3438C19.4846 17.5 19.6198 17.444 19.7194 17.3444C19.819 17.2448 19.875 17.1096 19.875 16.9688V15.375C19.875 14.8114 19.6511 14.2709 19.2526 13.8724C18.8541 13.4739 18.3136 13.25 17.75 13.25C17.1864 13.25 16.6459 13.4739 16.2474 13.8724C15.8489 14.2709 15.625 14.8114 15.625 15.375V16.9688C15.625 17.1096 15.681 17.2448 15.7806 17.3444C15.8802 17.444 16.0154 17.5 16.1562 17.5ZM16.6875 15.375C16.6875 15.0932 16.7994 14.823 16.9987 14.6237C17.198 14.4244 17.4682 14.3125 17.75 14.3125C18.0318 14.3125 18.302 14.4244 18.5013 14.6237C18.7006 14.823 18.8125 15.0932 18.8125 15.375V16.4375H16.6875V15.375Z" fill="#616161"/>
<path d="M15.0938 20.6875H14.0312C13.8904 20.6875 13.7552 20.7435 13.6556 20.8431C13.556 20.9427 13.5 21.0779 13.5 21.2188C13.5 21.3596 13.556 21.4948 13.6556 21.5944C13.7552 21.694 13.8904 21.75 14.0312 21.75H15.0938C15.2346 21.75 15.3698 21.694 15.4694 21.5944C15.569 21.4948 15.625 21.3596 15.625 21.2188C15.625 21.0779 15.569 20.9427 15.4694 20.8431C15.3698 20.7435 15.2346 20.6875 15.0938 20.6875Z" fill="#616161"/>
<path d="M10.3125 24.4062H14.5625C14.7034 24.4062 14.8385 24.3503 14.9382 24.2507C15.0378 24.151 15.0938 24.0159 15.0938 23.875C15.0938 23.7341 15.0378 23.599 14.9382 23.4993C14.8385 23.3997 14.7034 23.3438 14.5625 23.3438H10.3125C10.1716 23.3438 10.0365 23.3997 9.93685 23.4993C9.83722 23.599 9.78125 23.7341 9.78125 23.875C9.78125 24.0159 9.83722 24.151 9.93685 24.2507C10.0365 24.3503 10.1716 24.4062 10.3125 24.4062Z" fill="#616161"/>
<path d="M15.625 23.875C15.625 24.0159 15.681 24.151 15.7806 24.2507C15.8802 24.3503 16.0154 24.4062 16.1562 24.4062H17.2188C17.3596 24.4062 17.4948 24.3503 17.5944 24.2507C17.694 24.151 17.75 24.0159 17.75 23.875C17.75 23.7341 17.694 23.599 17.5944 23.4993C17.4948 23.3997 17.3596 23.3438 17.2188 23.3438H16.1562C16.0154 23.3438 15.8802 23.3997 15.7806 23.4993C15.681 23.599 15.625 23.7341 15.625 23.875Z" fill="#616161"/>
<path d="M16.6875 18.5625H12.4375C12.2966 18.5625 12.1615 18.6185 12.0618 18.7181C11.9622 18.8177 11.9062 18.9529 11.9062 19.0938C11.9062 19.2346 11.9622 19.3698 12.0618 19.4694C12.1615 19.569 12.2966 19.625 12.4375 19.625H16.6875C16.8284 19.625 16.9635 19.569 17.0632 19.4694C17.1628 19.3698 17.2188 19.2346 17.2188 19.0938C17.2188 18.9529 17.1628 18.8177 17.0632 18.7181C16.9635 18.6185 16.8284 18.5625 16.6875 18.5625Z" fill="#616161"/>
<path d="M19.3438 18.5625H18.2812C18.1404 18.5625 18.0052 18.6185 17.9056 18.7181C17.806 18.8177 17.75 18.9529 17.75 19.0938C17.75 19.2346 17.806 19.3698 17.9056 19.4694C18.0052 19.569 18.1404 19.625 18.2812 19.625H19.3438C19.4846 19.625 19.6198 19.569 19.7194 19.4694C19.819 19.3698 19.875 19.2346 19.875 19.0938C19.875 18.9529 19.819 18.8177 19.7194 18.7181C19.6198 18.6185 19.4846 18.5625 19.3438 18.5625Z" fill="#616161"/>
<path d="M11.9062 16.4375H12.9688C13.1096 16.4375 13.2448 16.3815 13.3444 16.2819C13.444 16.1823 13.5 16.0471 13.5 15.9062C13.5 15.7654 13.444 15.6302 13.3444 15.5306C13.2448 15.431 13.1096 15.375 12.9688 15.375H11.9062C11.7654 15.375 11.6302 15.431 11.5306 15.5306C11.431 15.6302 11.375 15.7654 11.375 15.9062C11.375 16.0471 11.431 16.1823 11.5306 16.2819C11.6302 16.3815 11.7654 16.4375 11.9062 16.4375Z" fill="#616161"/>
<path d="M8.71875 27.5938H7.65625C7.51535 27.5938 7.38023 27.6497 7.2806 27.7493C7.18097 27.849 7.125 27.9841 7.125 28.125C7.125 28.2659 7.18097 28.401 7.2806 28.5007C7.38023 28.6003 7.51535 28.6562 7.65625 28.6562H8.71875C8.85965 28.6562 8.99477 28.6003 9.0944 28.5007C9.19403 28.401 9.25 28.2659 9.25 28.125C9.25 27.9841 9.19403 27.849 9.0944 27.7493C8.99477 27.6497 8.85965 27.5938 8.71875 27.5938Z" fill="#616161"/>
<path d="M10.3125 13.25H9.25C9.1091 13.25 8.97398 13.306 8.87435 13.4056C8.77472 13.5052 8.71875 13.6404 8.71875 13.7812C8.71875 13.9221 8.77472 14.0573 8.87435 14.1569C8.97398 14.2565 9.1091 14.3125 9.25 14.3125H10.3125C10.4534 14.3125 10.5885 14.2565 10.6882 14.1569C10.7878 14.0573 10.8438 13.9221 10.8438 13.7812C10.8438 13.6404 10.7878 13.5052 10.6882 13.4056C10.5885 13.306 10.4534 13.25 10.3125 13.25Z" fill="#616161"/>
</svg>
