<svg width="18" height="18" viewBox="0 0 18 18" fill="none" xmlns="http://www.w3.org/2000/svg">
<g clip-path="url(#clip0_12_4295)">
<path d="M1.15991 11.584V12.957C1.15991 14.5437 2.32607 15.8631 3.84633 16.1034V17.1185H4.8447V16.1426H13.1808V17.1185H14.1792V16.1034C15.6994 15.8631 16.8656 14.5437 16.8656 12.957V11.584H1.15991Z" fill="#131212"/>
<path d="M2.15844 8.58768V2.82785C2.15844 1.86349 2.94303 1.07893 3.90739 1.07893C4.8005 1.07893 5.53887 1.75195 5.6432 2.61737C4.6036 2.85151 3.82453 3.78166 3.82453 4.89094V5.55663H8.48649V4.89094C8.48649 3.77367 7.69621 2.83797 6.64546 2.61221C6.53494 1.19787 5.34959 0.0805664 3.90739 0.0805664C2.39252 0.0805664 1.16007 1.31298 1.16007 2.82785V8.58768H0.494019V10.586H17.5319V8.58768H2.15844Z" fill="#131212"/>
</g>
<defs>
<clipPath id="clip0_12_4295">
<rect width="17.0382" height="17.0382" fill="white" transform="translate(0.49353 0.0805664)"/>
</clipPath>
</defs>
</svg>
