<svg width="21" height="21" viewBox="0 0 21 21" fill="none" xmlns="http://www.w3.org/2000/svg">
<path d="M17.3027 9.62289C16.9134 9.45197 16.4927 9.36389 16.0675 9.36426H4.95C4.5248 9.36385 4.10415 9.45179 3.71473 9.62251C3.16434 9.8632 2.69599 10.259 2.36693 10.7616C2.03786 11.2642 1.86234 11.8517 1.86182 12.4524V16.7759C1.86182 16.9397 1.92689 17.0968 2.04272 17.2126C2.15855 17.3285 2.31565 17.3935 2.47945 17.3935C2.64326 17.3935 2.80036 17.3285 2.91619 17.2126C3.03202 17.0968 3.09709 16.9397 3.09709 16.7759V16.4671C3.09809 16.3855 3.13095 16.3075 3.18865 16.2498C3.24635 16.1921 3.32432 16.1593 3.40591 16.1583H17.6115C17.6931 16.1593 17.7711 16.1921 17.8288 16.2498C17.8865 16.3075 17.9194 16.3855 17.9204 16.4671V16.7759C17.9204 16.9397 17.9854 17.0968 18.1013 17.2126C18.2171 17.3285 18.3742 17.3935 18.538 17.3935C18.7018 17.3935 18.8589 17.3285 18.9747 17.2126C19.0906 17.0968 19.1556 16.9397 19.1556 16.7759V12.4524C19.155 11.8518 18.9795 11.2643 18.6504 10.7618C18.3214 10.2593 17.8531 9.86356 17.3027 9.62289Z" fill="#131212"/>
<path d="M15.141 3.80566H5.87645C5.30312 3.80566 4.75328 4.03342 4.34788 4.43882C3.94247 4.84422 3.71472 5.39407 3.71472 5.96739V8.74676C3.71474 8.77068 3.72032 8.79428 3.73102 8.81568C3.74171 8.83709 3.75724 8.85571 3.77637 8.87008C3.7955 8.88446 3.81771 8.89419 3.84124 8.89851C3.86477 8.90284 3.88899 8.90163 3.91198 8.89499C4.24915 8.79637 4.59869 8.74646 4.94999 8.74676H5.11328C5.1514 8.747 5.18825 8.73314 5.21676 8.70784C5.24526 8.68254 5.2634 8.64759 5.26769 8.60972C5.30138 8.30792 5.44505 8.02911 5.67128 7.82653C5.8975 7.62395 6.19042 7.51179 6.49409 7.51148H8.65581C8.95968 7.51151 9.25288 7.62353 9.47935 7.82614C9.70582 8.02875 9.84966 8.30772 9.88337 8.60972C9.88765 8.64759 9.9058 8.68254 9.9343 8.70784C9.96281 8.73314 9.99966 8.747 10.0378 8.74676H10.982C11.0201 8.747 11.057 8.73314 11.0855 8.70784C11.114 8.68254 11.1321 8.64759 11.1364 8.60972C11.1701 8.30812 11.3136 8.02947 11.5396 7.82691C11.7655 7.62436 12.0582 7.51208 12.3616 7.51148H14.5234C14.8272 7.51151 15.1204 7.62353 15.3469 7.82614C15.5734 8.02875 15.7172 8.30772 15.7509 8.60972C15.7552 8.64759 15.7733 8.68254 15.8018 8.70784C15.8304 8.73314 15.8672 8.747 15.9053 8.74676H16.0675C16.4188 8.74659 16.7683 8.79663 17.1055 8.89538C17.1285 8.90202 17.1527 8.90323 17.1763 8.89888C17.1999 8.89454 17.2221 8.88477 17.2412 8.87036C17.2604 8.85594 17.2759 8.83726 17.2866 8.81581C17.2972 8.79436 17.3028 8.77072 17.3027 8.74676V5.96739C17.3027 5.39407 17.075 4.84422 16.6696 4.43882C16.2642 4.03342 15.7143 3.80566 15.141 3.80566Z" fill="#131212"/>
</svg>
