<svg width="34" height="27" viewBox="0 0 34 27" fill="none" xmlns="http://www.w3.org/2000/svg">
<path d="M33.7804 18.2182C33.5531 18.064 33.2431 18.1236 33.088 18.3504C33.0462 18.4116 32.0429 19.8479 30.2003 19.8479C28.3578 19.8479 27.3545 18.4116 27.3137 18.3521C27.1302 18.0613 26.6685 18.0616 26.4852 18.3525C26.4752 18.3674 25.4604 19.8479 23.6014 19.8479C22.0431 19.8479 21.0853 18.8209 20.8021 18.4678V10.735H33.5009C33.7766 10.735 34 10.5116 34 10.2359C34 9.96029 33.7766 9.7369 33.5009 9.7369H29.4879V6.09984C29.4879 2.80024 26.8353 0.0902022 23.5749 0.0586593C21.9709 0.0425225 20.4582 0.657577 19.3161 1.78867C18.7631 2.33633 18.3316 2.97237 18.0323 3.66425C17.1099 1.56362 15.0354 0.0819679 12.6297 0.0586593C12.6099 0.05846 12.5901 0.0583935 12.5703 0.0583935C10.9882 0.0583935 9.49886 0.671522 8.37081 1.78867C7.22849 2.92004 6.59929 4.42633 6.59929 6.03004V9.73697H0.536803C0.261151 9.73697 0.03776 9.96036 0.03776 10.236C0.03776 10.5117 0.261151 10.7351 0.536803 10.7351H6.59929V12.7057C6.59929 12.9814 6.82269 13.2048 7.09834 13.2048C7.37399 13.2048 7.59738 12.9814 7.59738 12.7057V6.03004C7.59738 4.69468 8.12146 3.44026 9.07319 2.49776C10.0246 1.55559 11.2832 1.04081 12.6202 1.05668C15.3354 1.08291 17.5446 3.3453 17.5446 6.09984V9.7369H16.2832V6.03004C16.2832 4.01793 14.6468 2.35286 12.6355 2.3184C12.6142 2.31807 12.5933 2.31787 12.5721 2.31787C11.6089 2.31787 10.6963 2.69459 9.99624 3.38276C9.27334 4.09337 8.85877 5.07904 8.85877 6.08702V19.4806C8.19351 19.1465 7.76712 18.6749 7.59731 18.4621V14.7018C7.59731 14.4261 7.37392 14.2027 7.09827 14.2027C6.82262 14.2027 6.59923 14.4261 6.59923 14.7018V18.4671C6.31501 18.8215 5.3573 19.8479 3.79967 19.8479C1.9571 19.8479 0.953834 18.4116 0.913061 18.3521C0.759264 18.1234 0.449213 18.0627 0.22051 18.2164C-0.00819309 18.3701 -0.0689548 18.6802 0.084842 18.9089C0.137967 18.988 1.41456 20.8459 3.79961 20.8459C5.43021 20.8459 6.54265 19.9776 7.10026 19.4029C7.65788 19.9776 8.77038 20.8459 10.4009 20.8459C12.0311 20.8459 13.1423 19.9781 13.6995 19.4032C14.2572 19.9779 15.3696 20.8459 16.9998 20.8459C18.6304 20.8459 19.7428 19.9776 20.3004 19.4029C20.858 19.9776 21.9705 20.8459 23.6011 20.8459C25.2313 20.8459 26.3425 19.9781 26.8996 19.4032C27.4574 19.9779 28.5697 20.8459 30.1999 20.8459C32.5851 20.8459 33.8616 18.988 33.9147 18.9089C34.0684 18.6808 34.0079 18.3725 33.7804 18.2182ZM9.85685 14.2028H17.5446V15.6H9.85685V14.2028ZM17.5446 13.2047H9.85685V10.735H17.5446V13.2047ZM10.696 4.09457C11.219 3.58045 11.9015 3.30413 12.6184 3.31635C14.0889 3.34158 15.2852 4.55894 15.2852 6.03011V9.73704H9.85692V6.08709C9.85685 5.34493 10.1627 4.61871 10.696 4.09457ZM14.1134 18.3521C13.9301 18.0629 13.4707 18.0627 13.286 18.3509C13.2443 18.412 12.2433 19.8479 10.4011 19.8479C10.2105 19.8479 10.0294 19.8318 9.85685 19.8042V16.598H17.5446V19.8041C17.372 19.8317 17.1908 19.8479 17 19.8479C15.1575 19.8479 14.1541 18.4116 14.1134 18.3521ZM18.5426 19.4804V6.03004C18.5426 4.69468 19.0667 3.44026 20.0184 2.49776C20.9698 1.55559 22.2285 1.04081 23.5653 1.05668C26.2806 1.08291 28.4898 3.3453 28.4898 6.09984V9.7369H27.2284V8.62759C27.2284 8.35194 27.005 8.12855 26.7294 8.12855C26.4537 8.12855 26.2303 8.35194 26.2303 8.62759V9.7369H20.802V6.08695C20.802 5.34486 21.1079 4.61864 21.6411 4.09443C22.1641 3.58032 22.8454 3.304 23.5635 3.31622C25.034 3.34145 26.2303 4.55881 26.2303 6.02998V6.63148C26.2303 6.90714 26.4537 7.13053 26.7294 7.13053C27.005 7.13053 27.2284 6.90714 27.2284 6.63148V6.02998C27.2284 4.01787 25.592 2.3528 23.5807 2.31833C23.5595 2.318 23.5385 2.3178 23.5173 2.3178C22.5541 2.3178 21.6416 2.69452 20.9415 3.38269C20.2186 4.0933 19.804 5.07897 19.804 6.08695V18.4614C19.6337 18.6751 19.2073 19.1465 18.5426 19.4804Z" fill="#616161"/>
<path d="M13.7017 25.9437C11.8591 25.9437 10.8559 24.5074 10.8151 24.4479C10.6319 24.1588 10.1728 24.1585 9.98794 24.4463C9.94617 24.5074 8.94284 25.9437 7.10033 25.9437C5.25783 25.9437 4.25449 24.5074 4.21372 24.4479C4.05992 24.2192 3.74987 24.1585 3.52117 24.3123C3.29247 24.466 3.2317 24.7761 3.3855 25.0048C3.43863 25.0838 4.71515 26.9418 7.10027 26.9418C8.73087 26.9418 9.84331 26.0734 10.4009 25.4988C10.9585 26.0734 12.071 26.9418 13.7016 26.9418C13.9773 26.9418 14.2007 26.7184 14.2007 26.4427C14.2007 26.1671 13.9774 25.9437 13.7017 25.9437Z" fill="#616161"/>
<path d="M30.4792 24.314C30.2516 24.16 29.9418 24.2199 29.7868 24.4469C29.7451 24.508 28.7441 25.9439 26.9019 25.9439C25.0593 25.9439 24.0561 24.5076 24.0153 24.4481C23.8319 24.1575 23.3705 24.1575 23.1871 24.4481C23.177 24.463 22.1598 25.9439 20.3004 25.9439C18.4579 25.9439 17.4546 24.5076 17.4138 24.4481C17.2305 24.1589 16.7711 24.1587 16.5864 24.4469C16.5824 24.4526 16.1797 25.0352 15.4369 25.4688C15.1989 25.6078 15.1185 25.9134 15.2575 26.1514C15.3965 26.3893 15.7019 26.4696 15.9401 26.3308C16.3985 26.0632 16.753 25.7522 16.9994 25.4985C17.5569 26.0732 18.6694 26.942 20.3004 26.942C21.9311 26.942 23.0435 26.0736 23.6011 25.4989C24.1587 26.0736 25.2712 26.942 26.9018 26.942C29.2872 26.942 30.5613 25.0836 30.6144 25.0046C30.7677 24.7762 30.7068 24.468 30.4792 24.314Z" fill="#616161"/>
</svg>
