<svg width="703" height="520" viewBox="0 0 703 520" fill="none" xmlns="http://www.w3.org/2000/svg">
<rect width="703" height="520" fill="white"/>
<path d="M278.537 302.732C278.537 359.765 232.302 406 175.268 406C118.235 406 72 359.765 72 302.732C72 245.698 118.235 199.463 175.268 199.463C232.302 199.463 278.537 245.698 278.537 302.732ZM139.909 302.732C139.909 322.26 155.74 338.091 175.268 338.091C194.797 338.091 210.627 322.26 210.627 302.732C210.627 283.203 194.797 267.373 175.268 267.373C155.74 267.373 139.909 283.203 139.909 302.732Z" fill="#262626"/>
<path d="M214.439 199.463H285.659V406H214.439V199.463Z" fill="#262626"/>
<path d="M321.268 149.61L392.488 114V406H321.268V149.61Z" fill="#262626"/>
<path d="M580.883 156.585C583.719 153.859 588.227 153.948 590.953 156.783L630.441 197.855C633.167 200.691 633.078 205.199 630.243 207.925L472.005 360.059C469.17 362.785 464.661 362.697 461.935 359.861L422.447 318.789C419.721 315.954 419.81 311.445 422.645 308.719L580.883 156.585Z" fill="#262626"/>
<path d="M629.174 310.862C631.953 313.646 631.948 318.155 629.163 320.934L588.832 361.178C586.048 363.956 581.538 363.951 578.76 361.167L423.712 205.783C420.934 202.999 420.939 198.489 423.723 195.711L464.055 155.467C466.839 152.689 471.348 152.693 474.126 155.478L629.174 310.862Z" fill="#262626"/>
</svg>
