<svg width="18" height="18" viewBox="0 0 18 18" fill="none" xmlns="http://www.w3.org/2000/svg">
<path d="M16.9626 13.5688C16.9626 13.7571 16.8878 13.9377 16.7547 14.0708C16.6216 14.204 16.441 14.2788 16.2527 14.2788H7.73358C7.5453 14.2788 7.36473 14.204 7.23159 14.0708C7.09845 13.9377 7.02365 13.7571 7.02365 13.5688C7.02365 12.4391 7.47243 11.3557 8.27125 10.5569C9.07008 9.75804 10.1535 9.30927 11.2832 9.30927H12.7031C13.8328 9.30927 14.9162 9.75804 15.715 10.5569C16.5139 11.3557 16.9626 12.4391 16.9626 13.5688ZM11.9931 2.91992C11.4315 2.91992 10.8825 3.08647 10.4155 3.3985C9.9485 3.71053 9.58453 4.15403 9.3696 4.67292C9.15466 5.19181 9.09843 5.76278 9.208 6.31363C9.31757 6.86448 9.58803 7.37047 9.98517 7.76761C10.3823 8.16475 10.8883 8.4352 11.4391 8.54478C11.99 8.65435 12.561 8.59811 13.0799 8.38318C13.5987 8.16825 14.0422 7.80428 14.3543 7.33729C14.6663 6.8703 14.8329 6.32127 14.8329 5.75963C14.8329 5.00649 14.5337 4.2842 14.0011 3.75165C13.4686 3.2191 12.7463 2.91992 11.9931 2.91992ZM5.6038 2.91992C5.04216 2.91992 4.49313 3.08647 4.02614 3.3985C3.55916 3.71053 3.19518 4.15403 2.98025 4.67292C2.76532 5.19181 2.70909 5.76278 2.81866 6.31363C2.92823 6.86448 3.19868 7.37047 3.59582 7.76761C3.99296 8.16475 4.49895 8.4352 5.0498 8.54478C5.60065 8.65435 6.17162 8.59811 6.69051 8.38318C7.2094 8.16825 7.6529 7.80428 7.96493 7.33729C8.27696 6.8703 8.44351 6.32127 8.44351 5.75963C8.44351 5.00649 8.14433 4.2842 7.61178 3.75165C7.07923 3.2191 6.35694 2.91992 5.6038 2.91992ZM5.6038 13.5688C5.60275 12.8231 5.74966 12.0846 6.03604 11.3961C6.32241 10.7076 6.74255 10.0827 7.27213 9.55774C6.83874 9.39412 6.37941 9.30995 5.91617 9.30927H5.29143C4.24515 9.31114 3.24225 9.72761 2.50242 10.4674C1.76258 11.2073 1.34612 12.2102 1.34424 13.2565V13.5688C1.34424 13.7571 1.41903 13.9377 1.55217 14.0708C1.68531 14.204 1.86588 14.2788 2.05417 14.2788H5.73159C5.64894 14.0511 5.60572 13.811 5.6038 13.5688Z" fill="#131212"/>
</svg>
