<svg width="22" height="21" viewBox="0 0 22 21" fill="none" xmlns="http://www.w3.org/2000/svg">
<path d="M18 1.5H4C2.58579 1.5 1.87868 1.5 1.43934 1.9122C1 2.3244 1 2.98782 1 4.31466V5.00448C1 6.04232 1 6.56124 1.2596 6.99142C1.5192 7.4216 1.99347 7.68858 2.94202 8.22255L5.85504 9.86238C6.49146 10.2206 6.80967 10.3998 7.03751 10.5976C7.51199 11.0095 7.80408 11.4935 7.93644 12.0872C8 12.3722 8 12.7058 8 13.3729L8 16.0424C8 16.952 8 17.4067 8.25192 17.7613C8.50385 18.1158 8.95128 18.2907 9.84615 18.6406C11.7248 19.375 12.6641 19.7422 13.3321 19.3244C14 18.9066 14 17.9519 14 16.0424V13.3729C14 12.7058 14 12.3722 14.0636 12.0872C14.1959 11.4935 14.488 11.0095 14.9625 10.5976C15.1903 10.3998 15.5085 10.2206 16.145 9.86238L19.058 8.22255C20.0065 7.68858 20.4808 7.4216 20.7404 6.99142C21 6.56124 21 6.04232 21 5.00448V4.31466C21 2.98782 21 2.3244 20.5607 1.9122C20.1213 1.5 19.4142 1.5 18 1.5Z" stroke="#5F5F5F" stroke-width="1.5"/>
</svg>
